<?xml version="1.0" encoding="UTF-8"?>
<svg width="20" height="27" viewBox="0 0 121 168" version="1.1" xmlns="http://www.w3.org/2000/svg" xmlns:xlink="http://www.w3.org/1999/xlink">
    <g id="Artboard" stroke="none" stroke-width="1" fill="none" fill-rule="evenodd">
        <g id="hand-me" transform="translate(0.000000, 21.000000)" fill-rule="nonzero">
            <path d="M112.141863,68.4280321 L112.141863,55.5858364 C112.145656,50.1804941 109.46625,45.1282907 104.996061,42.1119388 C100.525872,39.095587 94.8521236,38.5113272 89.8645437,40.5537559 C87.0109759,38.2668167 83.4680312,37.0199832 79.8159936,37.017469 C77.6840106,37.0176786 75.5737135,37.4468502 73.6098944,38.2796047 C70.6636503,35.6752496 66.870976,34.2401488 62.9445405,34.2439674 C62.6791452,34.2439674 62.4154456,34.2504735 62.1534415,34.2634855 L62.1534415,23.9570868 C62.1532338,15.0053757 54.9319403,7.74294091 46.010732,7.72232158 C37.0895236,7.70187639 29.8351044,14.9309952 29.7939721,23.8826111 C29.7013755,37.6232923 29.5957448,54.2465638 29.53653,66.7233383 C22.8614275,62.6296139 14.1486308,64.6533513 9.94522239,71.2738477 C5.74181396,77.894344 7.59602672,86.6730853 14.1145441,91.0134362 L36.9378403,106.209599 C45.0950745,118.086722 58.526478,125.208957 72.9015441,125.279978 C97.4427284,125.279978 113.300271,106.493424 113.300271,77.4190995 C113.370952,74.3804635 112.980343,71.3487304 112.141863,68.4280321 L112.141863,68.4280321 Z" id="Path" fill="#FFFFFF"></path>
            <path d="M119.835736,67.3228857 L119.835736,55.5858364 C119.838478,48.3687473 116.597087,41.5353695 111.013169,36.9864334 C105.42925,32.4374974 98.0984843,30.6582745 91.0599536,32.1436624 C86.1461059,29.4830499 80.4525116,28.6529482 74.9872485,29.8003306 C73.3687894,28.8472968 71.6434256,28.0901739 69.8472865,27.5448164 L69.8472865,23.9570868 C69.8482868,10.743436 59.1860593,0.0243405084 46.017421,4.08278058e-05 C32.8487827,-0.0240947086 22.1474693,10.6557124 22.1001996,23.8692781 C22.0302588,34.2413063 21.952914,46.2577484 21.8938259,56.8967537 C12.1994334,56.9629374 3.68620796,63.3771234 0.918828024,72.7001102 C-1.84855191,82.023097 1.77966562,92.0659447 9.85807859,97.4438117 L31.4868244,111.845274 C41.136447,125.124237 56.5232749,132.983864 72.901526,133 C87.3628878,133 100.087633,127.156756 108.732082,116.547023 C116.75378,106.701838 120.993899,93.171369 120.993899,77.4190813 C121.054382,74.0171051 120.664931,70.6221059 119.835736,67.3228857 L119.835736,67.3228857 Z M72.901535,117.559911 C60.5455205,117.541531 49.0652892,111.155401 42.5031674,100.650153 L18.3685929,84.5803358 C15.9171773,82.9507944 14.8221938,79.9000457 15.6752372,77.0763403 C16.5282806,74.2526348 19.1271082,72.3254271 22.0676324,72.3359436 C23.371664,72.3343773 24.6470341,72.7198092 25.733299,73.4437512 L37.392161,81.2063604 L37.1839771,80.3903703 C37.1925941,69.2892616 37.3675048,41.7591267 37.4876088,23.9349166 C37.4994497,19.2362537 41.3020558,15.4352437 45.9847315,15.4413458 C50.6674072,15.4474773 54.4601377,19.2584088 54.4597867,23.9570868 L54.4597867,50.4539262 C54.4749942,45.757203 58.2773669,41.9597564 62.9581182,41.9666047 C67.6388695,41.973453 71.4301897,45.7820097 71.4317473,50.4787574 L71.4317473,52.002548 C72.047578,47.8072212 75.6494791,44.7082208 79.8755293,44.7376947 C84.1015793,44.7671688 87.6602015,47.9161091 88.217854,52.1196202 C89.8473311,48.4481535 93.8142959,46.4208794 97.7319448,47.2575479 C101.649593,48.0942163 104.449982,51.5667527 104.4482,55.5858364 L104.4482,69.7540262 C105.311639,72.213117 105.704579,74.8136845 105.606372,77.4190723 C105.606435,102.179257 93.0750927,117.559911 72.901535,117.559911 Z" id="Shape" fill="#35B8B0"></path>
        </g>
        <circle id="Oval" fill-opacity="0.5" fill="#CC138A" cx="39" cy="33" r="33"></circle>
    </g>
</svg>
