<?xml version="1.0" encoding="UTF-8"?>
<svg width="121px" height="168px" viewBox="0 0 121 168" version="1.1" xmlns="http://www.w3.org/2000/svg" xmlns:xlink="http://www.w3.org/1999/xlink">
    <g id="Artboard" stroke="none" stroke-width="1" fill="none" fill-rule="evenodd">
        <g id="hand" transform="translate(0.000000, 21.000000)" fill-rule="nonzero">
            <path d="M112.829186,68.9341327 L112.829186,56.0436146 C112.832993,50.6179333 110.143761,45.5467195 105.657181,42.5190178 C101.1706,39.491316 95.4760468,38.9048578 90.470178,40.9549718 C87.6061465,38.6594273 84.0502102,37.4079022 80.384781,37.4053786 C78.2449803,37.405589 76.1269449,37.8363754 74.1559248,38.6722634 C71.1988771,36.0581087 67.3922956,34.617608 63.4514623,34.6214409 C63.1850938,34.6214409 62.9204272,34.6279715 62.6574624,34.6410324 L62.6574624,24.295853 C62.6572539,15.3104586 55.4094807,8.02069692 46.4555594,8 C37.501638,7.97947788 30.2206176,15.2357983 30.1793345,24.2210971 C30.0863984,38.0134815 29.9803803,54.6993027 29.9209484,67.2230245 C23.2213691,63.1138963 14.4766236,65.1452486 10.2578017,71.7906564 C6.03897989,78.4360642 7.89999183,87.247838 14.4424119,91.6045206 L37.3493985,106.857864 C45.5365443,118.779677 59.0171992,125.928711 73.444977,126 C98.076151,126 113.991842,107.142756 113.991842,77.9590315 C114.062781,74.9089618 113.670741,71.8658209 112.829186,68.9341327 L112.829186,68.9341327 Z" id="Path" fill="#FFFFFF"></path>
            <path d="M119.835736,67.3228857 L119.835736,55.5858364 C119.838478,48.3687473 116.597087,41.5353695 111.013169,36.9864334 C105.42925,32.4374974 98.0984843,30.6582745 91.0599536,32.1436624 C86.1461059,29.4830499 80.4525116,28.6529482 74.9872485,29.8003306 C73.3687894,28.8472968 71.6434256,28.0901739 69.8472865,27.5448164 L69.8472865,23.9570868 C69.8482868,10.743436 59.1860593,0.0243405084 46.017421,4.08278058e-05 C32.8487827,-0.0240947086 22.1474693,10.6557124 22.1001996,23.8692781 C22.0302588,34.2413063 21.952914,46.2577484 21.8938259,56.8967537 C12.1994334,56.9629374 3.68620796,63.3771234 0.918828024,72.7001102 C-1.84855191,82.023097 1.77966562,92.0659447 9.85807859,97.4438117 L31.4868244,111.845274 C41.136447,125.124237 56.5232749,132.983864 72.901526,133 C87.3628878,133 100.087633,127.156756 108.732082,116.547023 C116.75378,106.701838 120.993899,93.171369 120.993899,77.4190813 C121.054382,74.0171051 120.664931,70.6221059 119.835736,67.3228857 L119.835736,67.3228857 Z M72.901535,117.559911 C60.5455205,117.541531 49.0652892,111.155401 42.5031674,100.650153 L18.3685929,84.5803358 C15.9171773,82.9507944 14.8221938,79.9000457 15.6752372,77.0763403 C16.5282806,74.2526348 19.1271082,72.3254271 22.0676324,72.3359436 C23.371664,72.3343773 24.6470341,72.7198092 25.733299,73.4437512 L37.392161,81.2063604 L37.1839771,80.3903703 C37.1925941,69.2892616 37.3675048,41.7591267 37.4876088,23.9349166 C37.4994497,19.2362537 41.3020558,15.4352437 45.9847315,15.4413458 C50.6674072,15.4474773 54.4601377,19.2584088 54.4597867,23.9570868 L54.4597867,50.4539262 C54.4749942,45.757203 58.2773669,41.9597564 62.9581182,41.9666047 C67.6388695,41.973453 71.4301897,45.7820097 71.4317473,50.4787574 L71.4317473,52.002548 C72.047578,47.8072212 75.6494791,44.7082208 79.8755293,44.7376947 C84.1015793,44.7671688 87.6602015,47.9161091 88.217854,52.1196202 C89.8473311,48.4481535 93.8142959,46.4208794 97.7319448,47.2575479 C101.649593,48.0942163 104.449982,51.5667527 104.4482,55.5858364 L104.4482,69.7540262 C105.311639,72.213117 105.704579,74.8136845 105.606372,77.4190723 C105.606435,102.179257 93.0750927,117.559911 72.901535,117.559911 Z" id="Shape" fill="#1B1E42"></path>
        </g>
    </g>
</svg>
