<?xml version="1.0" encoding="UTF-8"?>
<svg width="121px" height="168px" viewBox="0 0 121 168" version="1.1" xmlns="http://www.w3.org/2000/svg" xmlns:xlink="http://www.w3.org/1999/xlink">
    <g id="Artboard" stroke="none" stroke-width="1" fill="none" fill-rule="evenodd">
        <g id="pointer" transform="translate(11.000000, 18.000000)" fill-rule="nonzero">
            <path d="M95.4956,68.1669892 L37.23608,13.1533192 C32.2914538,8.48153741 25.0415648,7.19908562 18.7943355,9.89111088 C12.5471062,12.5831361 8.49999986,18.7335655 8.49999986,25.5361292 L8.49999986,105.933589 C8.49999986,112.711185 12.5161549,118.844535 18.7293782,121.55224 C24.9426014,124.259945 32.1698986,123.026835 37.13378,118.412109 L39.44537,116.263669 L45.82971,130.921879 C47.6617436,135.092995 51.0773794,138.364299 55.32366,140.014649 C59.5681685,141.649235 64.2899448,141.519495 68.43829,139.654299 L79.20709,134.808589 C87.6631712,131.05882 91.548073,121.219272 87.9345,112.704099 L81.67871,97.7353492 L84.75897,97.5615192 C91.5525793,97.1782652 97.4665267,92.7890897 99.8010469,86.3976872 C102.135567,80.0062847 100.442836,72.838698 95.4956,68.1669892 L95.4956,68.1669892 Z" id="Path" fill="#FFFFFF"></path>
            <path d="M101.33447,61.9892592 L43.06878,6.97069921 C35.6562077,-0.0293409364 24.7901529,-1.94935815 15.4275468,2.08653066 C6.06494079,6.12241947 0,15.3406993 0,25.5361292 L0,105.933589 C0.00380061406,114.565853 4.36641063,122.612452 11.5982361,127.325911 C18.8300616,132.03937 27.9530172,132.782205 35.85211,129.300779 L38.03588,134.314449 C42.0927043,143.630656 51.2874828,149.653359 61.44866,149.653359 C65.0567755,149.65782 68.6244352,148.893452 71.914,147.411129 L82.69409,142.560549 C95.3717736,136.937806 101.194478,122.184461 95.77409,109.418949 L93.57146,104.148439 C101.569684,100.834094 107.344293,93.6934852 108.912132,85.1788891 C110.479971,76.664293 107.627547,67.9351416 101.33446,61.9892592 L101.33447,61.9892592 Z M91.81677,83.4814492 C90.6482375,86.6848767 87.6842313,88.8846469 84.27966,89.0751992 L69.20239,89.9257792 L80.09185,115.981449 C81.902193,120.248178 79.9557881,125.178295 75.71899,127.057619 L64.95086,131.902339 C62.8713357,132.837097 60.5044321,132.901794 58.37695,132.082029 C56.2500236,131.254858 54.5392895,129.615907 53.62176,127.526369 L42.44708,101.869139 L31.34686,112.186519 C28.8591556,114.497234 25.2386089,115.114094 22.1260832,113.757532 C19.0135576,112.40097 17.0007961,109.328891 17,105.933589 L17,25.5361292 C17,22.1277873 19.0272073,19.0460206 22.1572211,17.697018 C25.2872349,16.3480154 28.9197481,16.9904012 31.39727,19.3310592 L89.65966,74.3466792 C92.1402303,76.6865454 92.9885858,80.2790984 91.81677,83.4814492 L91.81677,83.4814492 Z" id="Shape" fill="#1B1E42"></path>
        </g>
    </g>
</svg>
